<svg id="Layer_2" xmlns="http://www.w3.org/2000/svg" viewBox="0 0 47.18 24.71" height="48px"><g id="Artwork"><g><path fill="#231f20" d="M21.25,22.79v1.44h-6.2c-1.86-3.96-2.31-5.01-3.89-7.77-1.23-2.17-2.14-2.87-4.06-3.01v6.83c0,1.89,.56,2.48,2.52,2.52v1.44H0v-1.44c2.1-.04,2.59-.56,2.59-2.55V4.06c0-2-.49-2.56-2.59-2.59V0H10.01c5.11,0,8.68,1.82,8.68,6.79,0,4.13-3.08,6.09-7.07,6.23v.14c1.72,.46,2.94,1.37,3.71,2.42,.91,1.22,1.86,2.94,3.08,5.18,.7,1.3,1.12,1.96,2.83,2.03ZM9.52,2.13h-2.42V11.55h2.31c2.84,0,4.48-1.05,4.48-4.76s-1.3-4.66-4.38-4.66Z"/><path fill="#231f20" d="M37.03,20.69l.77,1.33c-1.79,1.61-3.99,2.62-6.79,2.62-5.25,0-8.33-3.4-8.33-9.28s3.33-9.17,8.02-9.17c5.01,0,7.42,3.15,7.42,8.51v1.22h-10.89c.1,4.48,1.65,6.09,5.15,6.09,1.47,0,3.26-.53,4.66-1.33Zm-9.77-6.83h6.51c0-4.24-.88-5.71-3.08-5.71-2.06,0-3.19,1.33-3.43,5.71Z"/><path fill="#231f20" d="M44.28,24.71c-1.65,0-2.91-1.33-2.91-2.98s1.26-2.9,2.91-2.9,2.91,1.29,2.91,2.9-1.26,2.98-2.91,2.98Z"/></g></g></svg>